<?xml version="1.0" standalone="no"?>
<!DOCTYPE svg PUBLIC "-//W3C//DTD SVG 20010904//EN"
 "http://www.w3.org/TR/2001/REC-SVG-20010904/DTD/svg10.dtd">
<svg version="1.0" xmlns="http://www.w3.org/2000/svg"
 width="1344.000000pt" height="768.000000pt" viewBox="0 0 1344.000000 768.000000"
 preserveAspectRatio="xMidYMid meet">

<g transform="translate(0.000000,768.000000) scale(0.100000,-0.100000)"
fill="#000000" stroke="none">
<path d="M4830 5244 l0 -666 43 32 c23 18 79 57 125 88 l82 55 0 451 0 451
1663 0 1662 0 3 -362 2 -363 120 -60 c66 -33 122 -60 125 -60 3 0 5 248 5 550
l0 550 -1915 0 -1915 0 0 -666z"/>
<path d="M6560 4909 c-109 -12 -311 -56 -420 -91 -324 -103 -596 -269 -853
-518 -182 -176 -325 -356 -456 -572 l-22 -37 135 -80 c589 -351 1149 -524
1701 -525 273 0 483 33 725 116 141 48 366 157 480 233 273 183 534 445 717
720 56 84 93 147 93 159 0 10 -272 167 -408 235 -401 201 -755 312 -1132 355
-144 17 -433 19 -560 5z m544 -254 c328 -38 676 -149 1026 -326 85 -43 161
-82 169 -88 12 -8 4 -23 -41 -83 -310 -409 -730 -684 -1196 -782 -533 -112
-1146 2 -1776 332 -60 31 -111 62 -113 67 -6 20 135 194 262 321 71 72 170
160 218 196 239 177 522 298 816 349 91 15 116 17 123 7 4 -7 8 -245 7 -530 0
-351 3 -523 10 -536 33 -63 131 -84 186 -40 55 43 55 43 55 608 l0 520 63 0
c34 0 120 -7 191 -15z"/>
<path d="M8527 3338 l-127 -93 3 -450 2 -450 -1662 -3 -1663 -2 0 368 0 368
-42 21 c-24 12 -80 42 -125 68 l-83 45 0 -560 0 -560 1915 0 1915 0 0 670 c0
369 -2 670 -3 670 -2 0 -61 -42 -130 -92z"/>
</g>
</svg>
